# xmcd CD database file
#
# Track frame offsets:
#	150
#	33227
#	63600
#	93132
#	122257
#	148547
#
# Disc length: 2442 seconds
#
# Revision: 0
# Processed by: cddbd v1.4PL0 Copyright (c) Steve Scherf et al.
# Submitted via: CDex 1.50Beta7
#
DISCID=45098806
DTITLE=Lee Morgan - Sextet
DYEAR=1900
DGENRE=Jazz
TTITLE0=Whisper Not
TTITLE1=Latin Hangover
TTITLE2=His Sister
TTITLE3=Slightly Hep
TTITLE4=Where am I
TTITLE5=D's Fink
EXTD=
EXTT0=
EXTT1=
EXTT2=
EXTT3=
EXTT4=
EXTT5=
PLAYORDER=
